<?xml version="1.0" encoding="utf-8"?>
<!-- Generator: Adobe Illustrator 19.1.0, SVG Export Plug-In . SVG Version: 6.00 Build 0)  -->
<svg version="1.1" id="Layer_1" xmlns:sketch="http://www.bohemiancoding.com/sketch/ns"
	 xmlns="http://www.w3.org/2000/svg" xmlns:xlink="http://www.w3.org/1999/xlink" x="0px" y="0px" viewBox="-282 401.9 31 38"
	 style="enable-background:new -282 401.9 31 38;" xml:space="preserve">
<style type="text/css">
	.st0{fill:#333333;}
</style>
<title>Imported Layers Copy</title>
<desc>Created with Sketch.</desc>
<g id="Theme-01" sketch:type="MSPage">
	<g id="html-block-icon" transform="translate(-1182.000000, -288.000000)" sketch:type="MSArtboardGroup">
		<g id="Imported-Layers-Copy" transform="translate(1183.000000, 289.000000)" sketch:type="MSLayerGroup">
			<g id="Imported-Layers" sketch:type="MSShapeGroup">
				<path class="st0" d="M-253,438.9h-29c-0.6,0-1-0.4-1-1v-28.4c0-0.3,0.1-0.5,0.3-0.7l8.4-7.6c0.2-0.2,0.4-0.3,0.7-0.3h20.6
					c0.6,0,1,0.4,1,1v36C-252,438.4-252.4,438.9-253,438.9z M-281,436.9h27v-34h-19.2l-7.8,7.1V436.9z"/>
				<path class="st0" d="M-273.8,410.9h-7.9c-0.4,0-0.8-0.2-0.9-0.6c-0.2-0.4-0.1-0.8,0.2-1.1l7.9-7.6c0.3-0.3,0.7-0.4,1.1-0.2
					c0.4,0.2,0.6,0.5,0.6,0.9v7.6C-272.8,410.5-273.2,410.9-273.8,410.9z M-279.3,408.9h4.5v-4.6L-279.3,408.9z"/>
				<path class="st0" d="M-269.2,430.9l-1-0.2l4.2-16.3l1,0.2L-269.2,430.9z M-262.9,426.8l-0.7-0.7l3.7-3.7l-3.7-3.7l0.7-0.7
					l4.1,4.1c0.1,0.1,0.1,0.2,0.1,0.4s-0.1,0.3-0.1,0.4L-262.9,426.8z M-272.3,426.8l-4.1-4.1c-0.1-0.1-0.1-0.2-0.1-0.4
					s0.1-0.3,0.1-0.4l4.1-4.1l0.7,0.7l-3.7,3.7l3.7,3.7L-272.3,426.8z"/>
			</g>
		</g>
	</g>
</g>
</svg>
